[img]http://img265.imageshack.us/img265/5125/killerelite.jpg[/img]


Verenigde Staten / Australië
Actie / Thriller
105 minuten

geregisseerd door Gary McKendry
met Jason Statham, Robert De Niro en Clive Owen

Danny (Statham) is een ex-Navy Seal die serieus in de problemen komt als Hunter (De Niro), zijn beste vriend en mentor wordt ontvoerd in opdracht van een Arabische sjeik. Die laatste dwingt Danny een moord te plegen. Doet hij dat niet, dan sterft Hunter een ongetwijfeld pijnlijke en tragische dood.


Vertaald door Simply ReleaseS Toppers
Jesprulin en Markow87



Trailer:





Screenshots:

[img]http://img339.imageshack.us/img339/5632/screenshot1ll.jpg[/img]

[img]http://img502.imageshack.us/img502/4306/screenshot2rq.jpg[/img]

[img]http://img546.imageshack.us/img546/5273/screenshot3xe.jpg[/img]

[img]http://img651.imageshack.us/img651/9963/screenshot4rh.jpg[/img]



INFO;


Video
ID                                       : 0
Format                                   : MPEG-4 Visual
Format profile                           : Advanced Simple@L5
Format settings, BVOP                    : 1
Format settings, QPel                    : No
Format settings, GMC                     : No warppoints
Format settings, Matrix                  : Custom
Codec ID                                 : XVID
Codec ID/Hint                            : XviD
Duration                                 : 1h 56mn
Bit rate                                 : 709 Kbps
Width                                    : 608 pixels
Height                                   : 256 pixels
Display aspect ratio                     : 2.40:1
Frame rate                               : 29.970 fps
Color space                              : YUV
Chroma subsampling                       : 4:2:0
Bit depth                                : 8 bits
Scan type                                : Progressive
Compression mode                         : Lossy
Bits/(Pixel*Frame)                       : 0.152
Stream size                              : 591 MiB (85%)
Writing library                          : XviD 64

Audio
ID                                       : 1
Format                                   : MPEG Audio
Format version                           : Version 1
Format profile                           : Layer 3
Mode                                     : Joint stereo
Mode extension                           : MS Stereo
Codec ID                                 : 55
Codec ID/Hint                            : MP3
Duration                                 : 1h 56mn
Bit rate mode                            : Variable
Bit rate                                 : 115 Kbps
Nominal bit rate                         : 128 Kbps
Channel(s)                               : 2 channels
Sampling rate                            : 48.0 KHz
Compression mode                         : Lossy
Stream size                              : 95.6 MiB (14%)
Alignment                                : Aligned on interleaves
Interleave, duration                     : 24 ms (0.72 video frame)
Interleave, preload duration             : 522 ms





Deze film wordt u aangeboden door het DutchReleaseTeam.
Voor de reviews van de nieuwste films, muziek, series, games etc
ga dan eens naar http://www.hetmultimediacafe.be

DutchReleaseteam = Hardcoded Dutch Subs





 [url=http://www.imdb.com/title/tt1448755/][img]http://hetmultimediacafe.nl/images/afbeeldingen/imdb.png[/img][/url] [url=http://www.moviemeter.nl/film/67827][img]http://hetmultimediacafe.nl/images/afbeeldingen/moviemeter.png[/img][/url]